<?xml version="1.0" standalone="no"?><!DOCTYPE svg PUBLIC "-//W3C//DTD SVG 1.1//EN" "http://www.w3.org/Graphics/SVG/1.1/DTD/svg11.dtd"><svg t="1571929238692" class="icon" viewBox="0 0 1024 1024" version="1.1" xmlns="http://www.w3.org/2000/svg" p-id="1846" width="18" height="18" xmlns:xlink="http://www.w3.org/1999/xlink"><defs><style type="text/css"></style></defs><path d="M837.417511 889.092427 764.700349 889.092427c-27.136034 0-49.634444-21.156856-51.220568-48.171116C697.248098 554.852994 469.359854 326.519612 183.393867 309.768089c-26.987654-1.587148-48.123021-23.887037-48.123021-50.763151l0-72.792886c0-14.201443 5.650697-27.300786 15.917528-36.923958 9.406231-9.278317 21.939685-14.381545 35.33374-14.381545l2.484587 0.024559c182.524057 9.397021 354.300328 86.186941 483.687164 216.226646 129.850393 129.4687 206.560496 301.42405 215.950354 484.141512 0.816598 13.933337-4.403287 27.760251-14.344706 37.862329C864.684528 883.439684 851.601558 889.092427 837.417511 889.092427zM186.523137 172.361603c-3.530406 0-6.77838 1.302669-9.149381 3.675716l-0.537236 0.515746c-2.793626 2.581802-4.15053 5.742794-4.15053 9.660011l0 72.792886c0 7.073092 5.665023 12.948917 12.900821 13.376659 304.932967 17.860786 547.938514 261.35138 565.244668 566.381561 0.430812 7.322779 6.39464 12.876262 13.867846 12.876262l72.717162 0c3.9121 0 7.067976-1.362021 9.642614-4.157693l0.517793-0.537236c3.332908-3.335978 3.855818-7.05365 3.707438-9.584286-8.916067-173.552731-81.732489-336.768023-205.046003-459.718263C523.476379 254.259868 360.620267 181.38614 187.56384 172.361603L186.523137 172.361603zM577.057715 889.092427l-68.648496 0c-26.479071 0-48.261167-20.016893-50.662867-46.559409C443.863157 696.395684 327.769069 580.176752 181.702342 566.275137c-26.435069-2.4017-46.430472-24.208355-46.430472-50.711985l0-68.720128c0-14.830777 5.91778-28.183899 16.680914-37.680181 8.946766-8.670473 21.502733-13.625322 34.570353-13.625322l4.030803 0.058328c112.980167 9.027607 219.200374 58.33357 299.090912 138.836045C569.980529 614.32448 619.235326 720.65418 628.250654 833.751005l0.033769 0.452301c0.782829 14.150278-3.958148 27.602661-13.350053 37.925774C605.432972 883.072317 591.995939 889.092427 577.057715 889.092427zM186.523137 432.988482c-3.374864 0-6.686283 1.215688-8.642844 3.170203l-1.047866 0.977257c-3.428076 2.936889-4.145413 6.900154-4.145413 9.706059l0 68.720128c0 7.119141 5.246491 12.761652 12.477172 13.418614 163.978678 15.608489 294.249651 146.016585 309.834604 310.087361 0.661056 7.317663 6.299473 12.57234 13.411451 12.57234l68.648496 0c2.802836 0 6.760984-0.719384 9.698896-4.152577l0.457418-0.515746c2.618641-2.834558 3.904936-6.465249 3.722788-10.503215-8.363482-104.086613-53.721529-201.938222-127.745453-275.552823C389.679094 486.844064 292.111964 441.461457 188.3129 432.988482L186.523137 432.988482zM251.611551 889.092427c-64.152089 0-116.339682-52.243875-116.339682-116.461455 0-64.22065 52.187593-116.463502 116.339682-116.463502 64.150042 0 116.339682 52.243875 116.339682 116.463502C367.951233 836.848553 315.76057 889.092427 251.611551 889.092427zM251.611551 693.618431c-43.520189 0-78.924537 35.446303-78.924537 79.012541s35.404348 79.009472 78.924537 79.009472c43.522236 0 78.926584-35.443233 78.926584-79.009472S295.133787 693.618431 251.611551 693.618431z" p-id="1847" fill="#ffffff"></path></svg>