<?xml version="1.0" standalone="no"?><!DOCTYPE svg PUBLIC "-//W3C//DTD SVG 1.1//EN" "http://www.w3.org/Graphics/SVG/1.1/DTD/svg11.dtd"><svg t="1571965773079" class="icon" viewBox="0 0 1024 1024" version="1.1" xmlns="http://www.w3.org/2000/svg" p-id="5096" xmlns:xlink="http://www.w3.org/1999/xlink" width="32" height="32"><defs><style type="text/css"></style></defs><path d="M510.747 704.492c-72.586 0-133.27 35.647-149.472 83.543 42.14 29.042 93.676 46.36 149.472 46.36 55.8 0 107.334-17.318 149.475-46.36-16.202-47.896-76.888-83.543-149.475-83.543z m0-641.089c-247.844 0-448.76 200.918-448.76 448.763 0 247.842 200.916 448.758 448.76 448.758S959.51 760.008 959.51 512.166c0-247.845-200.918-448.763-448.763-448.763z m77.814 314.55c13.404-42.846 48.729-76.22 93.313-82.646 44.587-6.423 86.2 15.868 108.7 53.541 7.463 12.495-5.032 27.32-16.78 20.178-24.96-15.169-54.673-22.032-85.577-17.58-30.904 4.453-58.139 19.52-78.926 41.28-9.787 10.244-25.176-0.563-20.73-14.773z m-357.543-29.087c22.502-37.677 64.113-59.963 108.698-53.542 44.588 6.423 79.91 39.8 93.313 82.645 4.446 14.21-10.943 25.02-20.73 14.776-20.786-21.76-48.021-36.83-78.926-41.28-30.905-4.455-60.617 2.41-85.574 17.577-11.75 7.142-24.243-7.684-16.781-20.176z m279.73 511.17c-155.788 0-282.078-121.238-282.078-270.795 0-130.247 126.29-19.488 282.077-19.488 155.79 0 282.078-108.797 282.078 19.488 0 149.557-126.288 270.796-282.078 270.796z" p-id="5097" fill="#ffffff"></path></svg>