<?xml version="1.0" standalone="no"?><!DOCTYPE svg PUBLIC "-//W3C//DTD SVG 1.1//EN" "http://www.w3.org/Graphics/SVG/1.1/DTD/svg11.dtd"><svg t="1571927034070" class="icon" viewBox="0 0 1024 1024" version="1.1" xmlns="http://www.w3.org/2000/svg" p-id="7061" xmlns:xlink="http://www.w3.org/1999/xlink" width="18" height="18"><defs><style type="text/css"></style></defs><path d="M1000.917 202.667H719.51V78.229c0-11.776-9.514-21.333-21.333-21.333H325.824c-11.776 0-21.333 9.557-21.333 21.333v124.438H23.104c-11.776 0-21.333 9.557-21.333 21.333v667.456c0 11.797 9.557 21.333 21.333 21.333h977.813c11.798 0 21.334-9.536 21.334-21.333V224c0-11.776-9.536-21.333-21.334-21.333zM347.157 99.563h329.686v103.104H347.157V99.563z m-21.333 145.77h653.739V512h-377.43V410.667c0-11.776-9.514-21.334-21.333-21.334H443.264c-11.776 0-21.333 9.558-21.333 21.334V512H44.437V245.333h281.387zM464.554 432h94.913v202.667h-94.912V432zM44.438 870.123V554.667h377.451V656c0 11.797 9.557 21.333 21.333 21.333H580.8c11.797 0 21.333-9.536 21.333-21.333V554.667h377.43v315.456H44.437z" p-id="7062" fill="#ffffff"></path></svg>