<?xml version="1.0" standalone="no"?><!DOCTYPE svg PUBLIC "-//W3C//DTD SVG 1.1//EN" "http://www.w3.org/Graphics/SVG/1.1/DTD/svg11.dtd"><svg t="1571926981003" class="icon" viewBox="0 0 1024 1024" version="1.1" xmlns="http://www.w3.org/2000/svg" p-id="6313" xmlns:xlink="http://www.w3.org/1999/xlink" width="18" height="18"><defs><style type="text/css"></style></defs><path d="M512 40.763077a472.615385 472.615385 0 1 0 472.615385 472.615385 472.615385 472.615385 0 0 0-472.615385-472.615385z m189.308718 422.006154L676.102564 593.591795v40.237949a11.749744 11.749744 0 0 1-11.815385 11.684102H334.244103a11.749744 11.749744 0 0 1-11.684103-11.815384V390.564103a10.633846 10.633846 0 0 1 11.815385-9.189744h101.743589c4.791795 0 29.669744 20.086154 39.056411 28.882051h189.505641a11.749744 11.749744 0 0 1 11.421538 11.815385v1.31282H347.50359a11.749744 11.749744 0 0 0-11.815385 11.552821v185.764102c0 1.312821 0 1.969231 0.65641 2.625641v0.656411a9.517949 9.517949 0 0 0 9.846154 9.189743h24.94359a15.294359 15.294359 0 0 1-12.471795-14.178461v-3.938462l29.538462-154.91282a19.692308 19.692308 0 0 1 19.692307-15.753846h277.661539a15.294359 15.294359 0 0 1 15.753846 14.441025z" fill="#ffffff" p-id="6314"></path><path d="M407.893333 457.517949a6.564103 6.564103 0 0 0-6.564102 5.251282L371.790769 617.025641v1.969231a4.594872 4.594872 0 0 0 2.625641 1.31282h277.661539a6.564103 6.564103 0 0 0 6.564102-5.251282L662.974359 590.769231l2.034872-10.108718 22.908718-119.597949v-1.969231a4.594872 4.594872 0 0 0-2.625641-1.31282z" fill="#ffffff" p-id="6315"></path></svg>