<?xml version="1.0" standalone="no"?><!DOCTYPE svg PUBLIC "-//W3C//DTD SVG 1.1//EN" "http://www.w3.org/Graphics/SVG/1.1/DTD/svg11.dtd"><svg t="1571967544339" class="icon" viewBox="0 0 1024 1024" version="1.1" xmlns="http://www.w3.org/2000/svg" p-id="1797" width="18" height="18" xmlns:xlink="http://www.w3.org/1999/xlink"><defs><style type="text/css"></style></defs><path d="M134.179499 284.247381h105.930752v105.930752c0 10.593621 7.061504 17.656491 17.655125 17.656491s17.655125-7.062869 17.655125-17.656491v-105.930752h105.930752c10.592256 0 17.655125-7.062869 17.655126-17.65649s-7.061504-17.656491-17.655126-17.656491h-105.930752V143.005013c0-10.592256-7.061504-17.655125-17.655125-17.655125-10.592256 0-17.655125 7.061504-17.655125 17.655125v105.930752H134.179499c-10.593621 0-17.655125 7.062869-17.655126 17.656491 0 8.829611 8.828245 17.655125 17.655126 17.655125zM891.587243 248.937131H644.412757c-10.593621 0-17.656491 7.062869-17.65649 17.65649s7.062869 17.656491 17.65649 17.656491h247.171755c10.593621 0 17.656491-7.062869 17.656491-17.656491s-7.062869-17.656491-17.65376-17.65649z" p-id="1798" fill="#ffffff"></path><path d="M1024 512V70.620501C1024 31.779499 992.221867 0 953.378133 0H70.620501C31.779499 0 0 31.779499 0 70.620501v882.757632C0 992.221867 31.779499 1024 70.620501 1024h882.757632c30.012757 0 54.732117-17.655125 65.325739-44.138496 3.530752-8.82688 5.296128-17.655125 5.296128-28.246016V512z m-529.655125 476.689749H70.620501c-19.420501 0-35.310251-15.889749-35.31025-35.308885V529.655125H494.34624v459.034624z m0-494.344874H35.310251V70.620501c0-19.420501 15.889749-35.310251 35.31025-35.31025h423.724374v459.034624z m397.242368 354.867882H644.412757c-10.593621 0-17.656491-7.062869-17.65649-17.65649s7.062869-17.655125 17.65649-17.655126h247.171755c10.593621 0 17.656491 7.061504 17.656491 17.655126 0 10.596352-7.062869 17.656491-17.65376 17.65649z m0-127.116629H644.412757c-10.593621 0-17.656491-7.061504-17.65649-17.655125s7.062869-17.656491 17.65649-17.656491h247.171755c10.593621 0 17.656491 7.062869 17.656491 17.656491s-7.062869 17.655125-17.65376 17.655125z m97.102506-227.751253H529.655125V35.310251h423.725739c19.421867 0 35.308885 15.889749 35.308885 35.31025v423.724374z" p-id="1799" fill="#ffffff"></path><path d="M144.77312 882.758997c3.530752 3.530752 8.82688 5.296128 12.358997 5.296128 5.296128 0 8.82688-1.765376 12.357632-5.296128l88.275627-88.275626 88.275627 88.275626c3.530752 3.530752 8.82688 5.296128 12.358997 5.296128 5.296128 0 8.82688-1.765376 12.358997-5.296128 7.061504-7.062869 7.061504-17.655125 0-24.717994l-88.275626-88.275627 88.275626-88.275627c7.061504-7.061504 7.061504-17.655125 0-24.717994-7.061504-7.061504-17.655125-7.061504-24.717994 0l-88.275627 88.275626-88.275627-88.275626c-7.061504-7.061504-17.655125-7.061504-24.716629 0-7.061504 7.062869-7.061504 17.656491 0 24.717994l88.275627 88.275627-88.275627 88.275627c-7.062869 7.062869-7.062869 17.655125 0 24.717994z" p-id="1800" fill="#ffffff"></path></svg>