<?xml version="1.0" standalone="no"?><!DOCTYPE svg PUBLIC "-//W3C//DTD SVG 1.1//EN" "http://www.w3.org/Graphics/SVG/1.1/DTD/svg11.dtd"><svg t="1571927927352" class="icon" viewBox="0 0 1024 1024" version="1.1" xmlns="http://www.w3.org/2000/svg" p-id="16170" xmlns:xlink="http://www.w3.org/1999/xlink" width="32" height="32"><defs><style type="text/css"></style></defs><path d="M1024 864V0H0v864h352v96h-64v64h448v-64h-64v-96h352z m-416 96h-192v-96h192v96z m-256-160H64V64h896v576H384v64h576v96H352z" p-id="16171" fill="#ffffff"></path><path d="M297.376 201.376L146.752 352l150.624 150.624 45.248-45.248L237.248 352l105.376-105.376zM726.624 502.624L877.248 352l-150.624-150.624-45.248 45.248L786.752 352l-105.376 105.376zM547.366 209.664l57.24 28.62-127.99 255.986-57.242-28.62zM128 640h64v64H128zM256 640h64v64h-64z" p-id="16172" fill="#ffffff"></path></svg>