<?xml version="1.0" standalone="no"?><!DOCTYPE svg PUBLIC "-//W3C//DTD SVG 1.1//EN" "http://www.w3.org/Graphics/SVG/1.1/DTD/svg11.dtd"><svg t="1571926606720" class="icon" viewBox="0 0 1024 1024" version="1.1" xmlns="http://www.w3.org/2000/svg" p-id="2628" xmlns:xlink="http://www.w3.org/1999/xlink" width="18" height="18"><defs><style type="text/css"></style></defs><path d="M744.727273 0h-279.272728C321.163636 0 204.8 107.054545 190.836364 246.690909L83.781818 349.090909C46.545455 386.327273 27.927273 432.872727 27.927273 484.072727s18.618182 97.745455 55.854545 130.327273l125.672727 125.672727c37.236364 32.581818 79.127273 55.854545 121.018182 74.472728v97.745454C325.818182 972.8 377.018182 1024 442.181818 1024h325.818182c65.163636 0 116.363636-51.2 116.363636-116.363636v-107.054546c83.781818-46.545455 139.636364-139.636364 139.636364-242.036363V279.272727c0-153.6-125.672727-279.272727-279.272727-279.272727z m46.545454 907.636364c0 13.963636-9.309091 23.272727-23.272727 23.272727h-325.818182c-13.963636 0-23.272727-9.309091-23.272727-23.272727V837.818182h325.818182c13.963636 0 32.581818 0 46.545454-4.654546v74.472728z m139.636364-349.090909c0 102.4-83.781818 186.181818-186.181818 186.181818h-279.272728c-69.818182 0-134.981818-23.272727-195.490909-74.472728l-121.018181-121.018181c-18.618182-18.618182-27.927273-41.890909-27.927273-65.163637s9.309091-46.545455 27.927273-65.163636l37.236363-41.890909V465.454545c0 27.927273 18.618182 46.545455 46.545455 46.545455s46.545455-18.618182 46.545454-46.545455V279.272727c0-102.4 83.781818-186.181818 186.181818-186.181818h279.272728c102.4 0 186.181818 83.781818 186.181818 186.181818v279.272728z" p-id="2629" fill="#ffffff"></path></svg>